<svg xmlns="http://www.w3.org/2000/svg" width="26" height="26" viewBox="0 0 26 26"><defs><style>.a{fill:none;}.b{fill:#e17000;}</style></defs><path class="a" d="M0,0H26V26H0Z"/><path class="b" d="M23.45,4H4.383A2.365,2.365,0,0,0,2.012,6.383L2,20.683a2.375,2.375,0,0,0,2.383,2.383H23.45a2.375,2.375,0,0,0,2.383-2.383V6.383A2.375,2.375,0,0,0,23.45,4ZM22.258,20.683H5.575a1.2,1.2,0,0,1-1.192-1.192V13.533H23.45v5.958A1.2,1.2,0,0,1,22.258,20.683ZM23.45,8.767H4.383V6.383H23.45Z" transform="translate(-0.917 -0.533)"/></svg>