<svg xmlns="http://www.w3.org/2000/svg" width="24" height="24" viewBox="0 0 24 24"><defs><style>.a{fill:none;}.b,.c{fill:#e17000;}.b{opacity:0;}</style></defs><path class="a" d="M0,0H24V24H0ZM0,0H24V24H0ZM0,0H24V24H0ZM0,0H24V24H0Z"/><path class="b" d="M12,6.5a4.938,4.938,0,0,1,4.76,6.46l3.06,3.06A11.8,11.8,0,0,0,23,11.49,11.838,11.838,0,0,0,8.36,4.57l2.17,2.17A5.14,5.14,0,0,1,12,6.5ZM2.71,3.16a1,1,0,0,0,0,1.41L4.68,6.54A11.892,11.892,0,0,0,1,11.5a11.8,11.8,0,0,0,15.31,6.68l2.72,2.72a1,1,0,1,0,1.41-1.41L4.13,3.16a1.008,1.008,0,0,0-1.42,0ZM12,16.5a5,5,0,0,1-5-5,4.911,4.911,0,0,1,.49-2.14l1.57,1.57A3.434,3.434,0,0,0,9,11.5a3,3,0,0,0,3,3,2.694,2.694,0,0,0,.57-.07L14.14,16a4.813,4.813,0,0,1-2.14.5Zm2.97-5.33a2.969,2.969,0,0,0-2.64-2.64Z"/><path class="c" d="M12.663,4.922A12,12,0,0,0,1.5,12.452a12.039,12.039,0,0,0,22.325,0A12,12,0,0,0,12.663,4.922Zm0,12.552a5.022,5.022,0,1,1,5.073-5.022A5.062,5.062,0,0,1,12.663,17.474Zm0-8.034a3.012,3.012,0,1,0,3.045,3.012A3.038,3.038,0,0,0,12.663,9.44Z" transform="translate(-0.663 -0.904)"/></svg>